<svg aria-hidden="true" style="width:0;height:0;position:absolute;overflow:hidden" xmlns="http://www.w3.org/2000/svg"><defs><symbol id="icon-refresh" viewBox="0 0 18 18"><path d="M8.013 14.006h-.822a5.006 5.006 0 0 1-4.187-4.934c0-.831.213-1.609.574-2.299l.613.85a.91.91 0 0 0 1.614-.289l1.162-4.179a.91.91 0 0 0-.877-1.154l-4.174.006A.91.91 0 0 0 1.18 3.45l1.128 1.564a6.963 6.963 0 0 0-1.302 4.059 7 7 0 0 0 5.918 6.917c.091.014.18.01.267-.001v.012h.822A.987.987 0 0 0 9 15.014v-.02a.987.987 0 0 0-.987-.987zM16.82 14.551l-1.129-1.564a6.956 6.956 0 0 0 1.302-4.059 7.001 7.001 0 0 0-5.918-6.918.955.955 0 0 0-.267.001v-.013h-.822A.986.986 0 0 0 9 2.985v.02c0 .546.442.988.986.988h.822a5.006 5.006 0 0 1 4.187 4.934c0 .831-.213 1.609-.573 2.299l-.614-.85a.909.909 0 0 0-1.613.289l-1.163 4.179a.91.91 0 0 0 .878 1.154l4.174-.006a.91.91 0 0 0 .736-1.443z"/></symbol><symbol id="icon-search" viewBox="0 0 32 32"><path d="M31.715 28.953a.977.977 0 0 1 0 1.381l-1.381 1.381a.977.977 0 0 1-1.381 0l-9.668-9.668a.954.954 0 0 1-.222-.361A11.925 11.925 0 0 1 12 24C5.373 24 0 18.627 0 12S5.373 0 12 0s12 5.373 12 12c0 2.645-.865 5.08-2.314 7.063a.942.942 0 0 1 .361.222l9.668 9.668zM12 4a8 8 0 1 0 0 16 8 8 0 0 0 0-16z"/></symbol></defs></svg>